<?xml version="1.0" standalone="no"?>
<!DOCTYPE svg PUBLIC "-//W3C//DTD SVG 20010904//EN"
 "http://www.w3.org/TR/2001/REC-SVG-20010904/DTD/svg10.dtd">
<svg version="1.0" xmlns="http://www.w3.org/2000/svg"
 width="736.000000pt" height="736.000000pt" viewBox="0 0 736.000000 736.000000"
 preserveAspectRatio="xMidYMid meet">

<g transform="translate(0.000000,736.000000) scale(0.100000,-0.100000)"
fill="#000000" stroke="none">
<path d="M3410 6429 c0 -8 11 -116 25 -239 30 -269 51 -568 41 -578 -4 -4 -12
2 -18 13 -22 39 -142 156 -155 150 -8 -2 -12 -1 -9 4 7 11 -7 22 -77 60 -32
17 -63 28 -69 25 -6 -4 -8 -3 -5 3 6 9 -22 29 -28 21 -1 -2 -7 -77 -13 -168
-17 -246 -58 -452 -137 -680 -83 -240 -101 -348 -85 -509 15 -146 76 -341 103
-324 6 3 7 1 4 -5 -10 -15 3 -43 16 -35 6 3 7 1 3 -5 -9 -14 52 -105 65 -97 5
3 6 0 4 -7 -9 -23 153 -167 169 -150 4 4 6 0 4 -8 -2 -9 4 -14 14 -14 10 1 16
-2 13 -6 -6 -10 159 -84 225 -101 33 -8 109 -14 190 -14 114 0 147 4 210 23
98 31 213 89 204 104 -5 7 -3 8 5 3 23 -13 151 99 216 190 91 128 141 263 152
416 6 95 -3 165 -47 339 -57 228 -260 778 -281 764 -5 -3 -6 1 -4 8 4 11 -33
109 -115 303 -5 11 -6 -106 -3 -265 4 -185 2 -281 -4 -275 -6 6 -25 53 -42
105 -63 184 -299 629 -324 613 -6 -3 -7 -1 -3 5 4 6 -2 20 -14 32 -11 11 -18
20 -15 20 3 0 -13 25 -36 55 -23 30 -46 52 -52 48 -6 -3 -7 -1 -3 5 8 13 -62
108 -76 104 -5 -1 -7 2 -3 8 9 14 -14 42 -28 33 -5 -3 -7 -2 -4 3 3 6 2 16 -4
24 -7 13 -9 13 -9 -1z m315 -819 c63 -129 128 -319 150 -440 41 -226 30 -318
-67 -560 -89 -222 -100 -252 -89 -248 12 4 191 168 279 255 80 79 128 165 167
301 l22 76 26 -79 c14 -44 38 -129 53 -190 23 -97 26 -122 20 -211 -9 -157
-65 -280 -178 -392 -72 -72 -200 -143 -295 -162 -84 -18 -253 -7 -327 20 -167
63 -279 167 -355 332 -43 91 -56 144 -67 258 -9 105 7 194 71 384 56 170 93
308 120 461 23 126 24 129 41 114 24 -20 85 -135 106 -202 25 -78 35 -281 19
-392 -6 -44 -24 -165 -41 -270 -16 -104 -30 -194 -30 -199 0 -6 16 16 35 48
19 32 35 60 35 61 0 2 41 72 92 156 105 177 116 201 136 289 11 53 24 425 22
680 0 17 14 -7 55 -90z m565 -1554 c0 -2 -8 -10 -17 -17 -16 -13 -17 -12 -4 4
13 16 21 21 21 13z"/>
<path d="M2793 3675 c-98 -34 -266 -110 -335 -151 -71 -43 -154 -132 -195
-209 -99 -187 -165 -542 -222 -1200 -6 -66 -13 -146 -16 -177 l-6 -58 266 0
265 0 0 269 c0 268 0 270 22 285 30 21 44 20 68 -4 19 -19 20 -33 20 -285 l0
-265 1020 0 1020 0 0 268 c0 147 4 272 8 278 12 18 50 26 72 14 19 -10 20 -19
20 -285 l0 -275 265 0 265 0 0 33 c0 51 -28 338 -56 577 -74 632 -150 860
-332 999 -65 51 -261 147 -374 185 -88 30 -189 34 -244 11 -20 -8 -70 -43
-112 -77 -171 -137 -310 -207 -454 -227 -173 -24 -366 36 -534 165 -200 154
-190 149 -279 152 -64 2 -94 -2 -152 -23z"/>
<path d="M3720 1582 c-59 -32 -80 -74 -80 -158 l0 -74 -35 0 c-31 0 -35 -3
-35 -25 0 -22 4 -25 35 -25 l35 0 0 -170 0 -170 -40 0 c-36 0 -40 -2 -40 -25
l0 -25 121 0 c119 0 120 0 117 23 -3 19 -9 22 -53 23 l-50 1 -3 172 -2 171 60
0 c57 0 60 1 60 25 0 24 -3 25 -60 25 l-60 0 0 59 c0 103 26 141 96 141 40 0
44 -3 50 -27 10 -49 13 -53 35 -53 20 0 21 3 15 47 -3 26 -13 54 -20 62 -24
23 -106 25 -146 3z"/>
<path d="M2375 1578 c-5 -14 -45 -186 -45 -193 0 -3 11 -5 25 -5 20 0 26 7 34
38 25 94 41 160 41 166 0 12 -51 6 -55 -6z"/>
<path d="M2130 1510 c0 -38 2 -40 30 -40 28 0 30 2 30 40 0 38 -2 40 -30 40
-28 0 -30 -2 -30 -40z"/>
<path d="M3950 1510 c0 -38 2 -40 30 -40 28 0 30 2 30 40 0 38 -2 40 -30 40
-28 0 -30 -2 -30 -40z"/>
<path d="M2715 1347 c-16 -8 -42 -27 -57 -42 -19 -18 -29 -23 -30 -14 0 8 -2
19 -3 24 -2 6 -3 16 -4 23 -1 8 -21 12 -66 12 -63 0 -65 -1 -65 -25 0 -22 4
-25 40 -25 l40 0 0 -170 0 -170 -40 0 c-36 0 -40 -2 -40 -25 l0 -25 105 0 105
0 0 25 c0 22 -4 25 -39 25 l-40 0 4 120 c3 101 7 126 26 159 27 49 77 76 127
67 73 -11 91 -57 92 -233 l0 -113 -40 0 c-36 0 -40 -2 -40 -25 l0 -25 105 0
105 0 0 25 c0 14 -3 24 -7 24 -5 -1 -23 -1 -40 0 l-33 1 0 115 c0 97 3 122 20
156 35 67 103 95 165 67 46 -21 55 -54 55 -202 l0 -135 -37 -3 c-31 -2 -39 -7
-41 -25 -3 -23 -2 -23 108 -23 110 0 111 0 108 23 -2 18 -10 23 -40 25 l-38 3
0 127 c0 147 -11 195 -51 233 -61 57 -177 42 -230 -30 l-22 -31 -18 30 c-10
16 -29 36 -42 44 -34 23 -106 29 -142 13z"/>
<path d="M4365 1345 c-22 -8 -50 -27 -62 -42 l-23 -28 0 38 0 37 -70 0 c-68 0
-70 -1 -70 -25 0 -22 4 -25 40 -25 l40 0 0 -170 0 -170 -40 0 c-36 0 -40 -2
-40 -25 l0 -25 111 0 c109 0 110 0 107 23 -2 18 -10 23 -40 25 l-38 3 0 131 0
130 38 39 c44 44 80 56 130 43 65 -17 77 -46 80 -205 l4 -139 -41 0 c-37 0
-41 -2 -41 -25 l0 -25 105 0 105 0 0 25 c0 23 -4 25 -40 25 l-40 0 0 143 c0
155 -10 192 -60 229 -35 25 -106 31 -155 13z"/>
<path d="M4845 1346 c-116 -43 -170 -219 -105 -347 11 -21 39 -51 62 -66 36
-24 52 -28 114 -28 81 0 111 15 152 75 25 38 24 54 -4 58 -13 2 -23 -7 -32
-28 -20 -43 -63 -63 -129 -58 -63 5 -107 40 -123 97 -21 75 -27 72 138 71 81
-1 153 -1 161 0 11 0 13 12 8 55 -7 67 -46 139 -87 160 -44 23 -109 27 -155
11z m115 -49 c33 -17 70 -74 70 -108 l0 -29 -130 0 c-83 0 -130 4 -130 10 0
19 30 84 48 103 33 37 96 47 142 24z"/>
<path d="M2050 1325 c0 -22 4 -25 40 -25 l40 0 0 -169 0 -170 -37 -3 c-31 -2
-39 -7 -41 -25 -3 -23 -2 -23 108 -23 110 0 111 0 108 23 -2 18 -10 23 -40 25
l-38 3 0 195 0 194 -70 0 c-68 0 -70 -1 -70 -25z"/>
<path d="M3870 1325 c0 -23 4 -25 44 -25 l44 0 2 -169 1 -170 -43 -3 c-36 -2
-44 -7 -46 -25 -3 -23 -2 -23 107 -23 l111 0 0 25 c0 23 -4 25 -40 25 l-40 0
0 195 0 195 -70 0 c-68 0 -70 -1 -70 -25z"/>
<path d="M5190 955 l0 -45 40 0 40 0 0 45 0 45 -40 0 -40 0 0 -45z"/>
</g>
</svg>
